<?xml version="1.0" encoding="UTF-8" standalone="no"?>
<!DOCTYPE svg PUBLIC "-//W3C//DTD SVG 1.1//EN" "http://www.w3.org/Graphics/SVG/1.1/DTD/svg11.dtd">
<svg width="100%" height="100%" viewBox="0 0 411 419" version="1.1" xmlns="http://www.w3.org/2000/svg" xmlns:xlink="http://www.w3.org/1999/xlink" xml:space="preserve" xmlns:serif="http://www.serif.com/" style="fill-rule:evenodd;clip-rule:evenodd;stroke-linejoin:round;stroke-miterlimit:2;">
    <g transform="matrix(1,0,0,1,-10.2031,-3.64876)">
        <g transform="matrix(1.083,0,0,1.083,-4.283,5.0755)">
            <path d="M387.14,202.14C387.143,202.599 387.145,203.057 387.145,203.516C387.145,307.357 301.696,392.806 197.855,392.806C94.014,392.806 8.565,307.357 8.565,203.516C8.565,203.057 8.567,202.599 8.57,202.14C8.567,201.681 8.565,201.223 8.565,200.764C8.565,96.923 94.014,11.474 197.855,11.474C301.696,11.474 387.145,96.923 387.145,200.764C387.145,201.223 387.143,201.681 387.14,202.14Z" style="fill:url(#_Radial1);"/>
        </g>
        <g transform="matrix(1.0566,0,0,1.0566,5.9434,-0.58488)">
            <path d="M387.14,202.14C387.143,202.599 387.145,203.057 387.145,203.516C387.145,307.357 301.696,392.806 197.855,392.806C94.014,392.806 8.565,307.357 8.565,203.516C8.565,203.057 8.567,202.599 8.57,202.14C8.567,201.681 8.565,201.223 8.565,200.764C8.565,96.923 94.014,11.474 197.855,11.474C301.696,11.474 387.145,96.923 387.145,200.764C387.145,201.223 387.143,201.681 387.14,202.14Z" style="fill:url(#_Linear2);"/>
        </g>
        <g transform="matrix(1.0355,0,0,1.0355,10.125,3.6868)">
            <path d="M387.14,202.14C387.143,202.599 387.145,203.057 387.145,203.516C387.145,307.357 301.696,392.806 197.855,392.806C94.014,392.806 8.565,307.357 8.565,203.516C8.565,203.057 8.567,202.599 8.57,202.14C8.567,201.681 8.565,201.223 8.565,200.764C8.565,96.923 94.014,11.474 197.855,11.474C301.696,11.474 387.145,96.923 387.145,200.764C387.145,201.223 387.143,201.681 387.14,202.14Z" style="fill:rgb(177,177,177);"/>
        </g>
        <g transform="matrix(1.0002,0.268,-0.268,1.0002,71.28,-42.207)">
            <path d="M387.14,202.14C387.143,202.599 387.145,203.057 387.145,203.516C387.145,307.357 301.696,392.806 197.855,392.806C94.014,392.806 8.565,307.357 8.565,203.516C8.565,203.057 8.567,202.599 8.57,202.14L197.86,202.14L387.14,202.14Z" style="fill:url(#_Radial3);"/>
        </g>
        <g transform="matrix(-1.0002,-0.268,0.268,-1.0002,358.72,468.21)">
            <path d="M387.14,202.14C387.143,202.599 387.145,203.057 387.145,203.516C387.145,307.357 301.696,392.806 197.855,392.806C94.014,392.806 8.565,307.357 8.565,203.516C8.565,203.057 8.567,202.599 8.57,202.14L197.86,202.14L387.14,202.14Z" style="fill:url(#_Linear4);"/>
        </g>
        <g transform="matrix(0.87698,0,0,0.87698,41.483,35.725)">
            <path d="M387.14,202.14C387.143,202.599 387.145,203.057 387.145,203.516C387.145,307.357 301.696,392.806 197.855,392.806C94.014,392.806 8.565,307.357 8.565,203.516C8.565,203.057 8.567,202.599 8.57,202.14C8.567,201.681 8.565,201.223 8.565,200.764C8.565,96.923 94.014,11.474 197.855,11.474C301.696,11.474 387.145,96.923 387.145,200.764C387.145,201.223 387.143,201.681 387.14,202.14Z" style="fill:url(#_Linear5);"/>
        </g>
        <g transform="matrix(0.84528,0,0,0.84528,47.755,42.132)">
            <path d="M387.14,202.14C387.143,202.599 387.145,203.057 387.145,203.516C387.145,307.357 301.696,392.806 197.855,392.806C94.014,392.806 8.565,307.357 8.565,203.516C8.565,203.057 8.567,202.599 8.57,202.14C8.567,201.681 8.565,201.223 8.565,200.764C8.565,96.923 94.014,11.474 197.855,11.474C301.696,11.474 387.145,96.923 387.145,200.764C387.145,201.223 387.143,201.681 387.14,202.14Z" style="fill:url(#_Radial6);"/>
        </g>
        <g transform="matrix(1,0,0,1,10.2031,3.64876)">
            <path d="M126.377,74.769L200.948,202.296L218.215,210.814L354.455,250.637C355.763,251.103 344.597,289.243 317.035,316.94C307.084,326.94 296.721,335.689 284.704,343.035C268.782,352.769 252.282,358.507 240.416,361.294C171.221,377.551 123.184,340.432 105.738,328.958C63.278,301.031 15.09,185.861 91.714,102.653C101.472,92.056 112.402,84.269 126.377,74.769Z" style="fill:rgb(255,245,0);"/>
        </g>
        <g transform="matrix(1,0,0,1,10.2031,3.64876)">
            <path d="M126.377,74.769L205.004,206.952L354.455,250.637C364.352,212.062 360.612,173.313 344.258,140.947C303.62,60.518 207.89,24.968 126.377,74.769Z" style="fill:rgb(9,255,0);"/>
        </g>
        <g transform="matrix(1,0,0,1,-57.4158,56.2857)">
            <g transform="matrix(66.6667,0,0,66.6667,363.508,98.606)">
            </g>
            <text x="181.737px" y="98.606px" style="font-family:'InfiniteEnergy', 'Infinite Energy';font-size:66.667px;">F<tspan x="216.21px 247.688px 292.382px 327.701px " y="98.606px 98.606px 98.606px 98.606px ">EAST</tspan></text>
        </g>
        <g transform="matrix(1,0,0,1,62.9247,79.7779)">
            <g transform="matrix(66.6667,0,0,66.6667,223.929,246.157)">
            </g>
            <text x="80.635px" y="246.157px" style="font-family:'InfiniteEnergy', 'Infinite Energy';font-size:66.667px;">F<tspan x="108.109px 152.803px 188.122px " y="246.157px 246.157px 246.157px ">AST</tspan></text>
        </g>
        <path d="M140.88,87.493L136.58,90.067L205.558,204.937C202.718,207.463 200.945,211.14 201.015,215.235C201.142,222.686 207.293,228.629 214.744,228.502C216.317,228.475 217.803,228.164 219.198,227.644L233.676,251.774L237.945,249.201L223.467,225.071C226.307,222.545 228.081,218.868 228.01,214.773C227.883,207.322 221.732,201.379 214.281,201.506C212.708,201.533 211.223,201.844 209.827,202.364L140.88,87.494L140.88,87.493Z" style="fill-opacity:0.16;"/>
        <path d="M143.56,84.25L139.216,86.75L206.216,202.78C203.334,205.256 201.497,208.903 201.497,212.999C201.497,220.451 207.545,226.499 214.997,226.499C216.571,226.499 218.062,226.213 219.466,225.718L233.528,250.093L237.841,247.593L223.779,223.218C226.661,220.741 228.498,217.095 228.498,212.999C228.498,205.547 222.45,199.499 214.998,199.499C213.424,199.499 211.933,199.785 210.529,200.28L143.56,84.25L143.56,84.25Z" style="fill:white;"/>
        <path d="M215.2,202.64C210.908,202.567 207.127,204.767 204.949,208.122L188.589,203.437L186.662,210.155L203.022,214.841C203.13,221.277 208.306,226.526 214.792,226.637C219.089,226.71 222.897,224.517 225.074,221.155L340.774,254.286L342.67,247.567L226.97,214.436C226.861,208 221.685,202.751 215.2,202.64L215.2,202.64Z" style="fill-opacity:0.16;"/>
        <path d="M215,201C210.708,201 206.965,203.265 204.844,206.656L188.406,202.25L186.594,209L203.032,213.406C203.249,219.839 208.514,225 215,225C219.299,225 223.069,222.743 225.188,219.344L341.438,250.5L343.22,243.75L226.97,212.594C226.752,206.161 221.487,201 215.001,201L215,201Z" style="fill:url(#_Linear7);"/>
        <path d="M233.43,192.69L220.757,205.703C219.066,204.593 217.032,203.971 214.859,204C209.063,204.076 204.422,208.842 204.499,214.638C204.528,216.811 205.203,218.828 206.358,220.489L152.245,276.054L155.126,278.859L209.239,223.294C210.93,224.405 212.964,225.026 215.137,224.998C220.933,224.921 225.574,220.155 225.497,214.36C225.468,212.186 224.793,210.17 223.638,208.509L236.311,195.496L233.43,192.69Z" style="fill-opacity:0.16;"/>
        <path d="M233.72,191.44L220.876,204.284C219.2,203.152 217.175,202.503 215.001,202.503C209.205,202.503 204.501,207.207 204.501,213.003C204.501,215.176 205.15,217.202 206.282,218.878L151.438,273.722L154.282,276.566L209.126,221.722C210.802,222.854 212.828,223.503 215.001,223.503C220.797,223.503 225.501,218.799 225.501,213.003C225.501,210.829 224.852,208.804 223.72,207.128L236.564,194.284L233.72,191.44Z" style="fill:url(#_Linear8);"/>
        <g transform="matrix(0.042264,0,0,0.042264,206.64,204.46)">
            <path d="M387.14,202.14C387.143,202.599 387.145,203.057 387.145,203.516C387.145,307.357 301.696,392.806 197.855,392.806C94.014,392.806 8.565,307.357 8.565,203.516C8.565,203.057 8.567,202.599 8.57,202.14C8.567,201.681 8.565,201.223 8.565,200.764C8.565,96.923 94.014,11.474 197.855,11.474C301.696,11.474 387.145,96.923 387.145,200.764C387.145,201.223 387.143,201.681 387.14,202.14Z" style="fill:rgb(156,156,156);"/>
        </g>
        <g transform="matrix(0.036981,0,0,0.036981,207.68,205.52)">
            <path d="M387.14,202.14C387.143,202.599 387.145,203.057 387.145,203.516C387.145,307.357 301.696,392.806 197.855,392.806C94.014,392.806 8.565,307.357 8.565,203.516C8.565,203.057 8.567,202.599 8.57,202.14C8.567,201.681 8.565,201.223 8.565,200.764C8.565,96.923 94.014,11.474 197.855,11.474C301.696,11.474 387.145,96.923 387.145,200.764C387.145,201.223 387.143,201.681 387.14,202.14Z" style="fill:url(#_Radial9);"/>
        </g>
        <path d="M213.125,22.688L205.656,23.156L205.688,23.906C206.109,23.92 206.457,23.945 206.719,23.969C206.999,23.971 207.21,23.993 207.375,24.063C207.558,24.111 207.713,24.208 207.781,24.344C207.869,24.459 207.891,24.636 207.906,24.875C207.935,25.334 207.701,26.022 207.156,26.938C206.631,27.832 205.851,29.037 204.844,30.563L201.656,26.25C201.328,25.81 201.174,25.467 201.156,25.188C201.136,24.868 201.215,24.621 201.406,24.469C201.617,24.315 201.994,24.21 202.531,24.156C202.591,24.153 202.881,24.106 203.438,24.031L203.406,23.313L193.031,23.938L193.094,24.688C193.635,24.694 194.062,24.799 194.375,25C194.688,25.201 195.093,25.631 195.594,26.281L202.063,34.625L197.25,41.563C196.826,42.15 196.393,42.577 195.969,42.844C195.544,43.111 194.952,43.312 194.219,43.438L194.281,44.188L201.75,43.719L201.719,42.969C200.794,42.926 200.15,42.825 199.781,42.688C199.431,42.529 199.242,42.286 199.219,41.906C199.199,41.587 199.347,41.08 199.688,40.438C200.028,39.795 200.726,38.68 201.75,37.094L202.781,35.5L206.094,40.188C206.554,40.82 206.818,41.331 206.844,41.75C206.875,42.249 206.378,42.563 205.344,42.688C205.304,42.69 205.017,42.74 204.5,42.813L204.531,43.531L214.719,42.906L214.688,42.156C214.167,42.169 213.722,42.058 213.344,41.781C212.985,41.483 212.411,40.815 211.625,39.781L205.625,31.625L207.813,28.156C209.02,26.298 209.936,25.091 210.563,24.531C211.189,23.971 212.076,23.607 213.188,23.438L213.125,22.688ZM216.656,22.875L216.625,23.625C217.701,23.744 218.412,23.937 218.781,24.25C219.171,24.544 219.371,25.084 219.344,25.844L218.813,40.344C218.785,41.103 218.577,41.64 218.188,41.906C217.818,42.173 217.092,42.315 215.969,42.375L215.938,43.125L226.406,43.5L226.438,42.75C225.301,42.629 224.557,42.418 224.188,42.125C223.818,41.832 223.66,41.311 223.688,40.531L224.188,26.031C224.215,25.252 224.433,24.692 224.844,24.406C225.254,24.121 226.024,24.001 227.125,24L227.156,23.25L216.656,22.875ZM229.625,23.406L229.563,24.156C230.628,24.349 231.341,24.6 231.688,24.938C232.056,25.258 232.204,25.807 232.125,26.563L230.594,41C230.514,41.756 230.282,42.261 229.875,42.5C229.488,42.741 228.718,42.861 227.594,42.844L227.531,43.594L237.969,44.688L238.031,43.938C236.906,43.739 236.192,43.474 235.844,43.156C235.495,42.838 235.356,42.276 235.438,41.5L236.938,27.063C237.019,26.287 237.29,25.788 237.719,25.531C238.148,25.275 238.902,25.175 240,25.25L240.094,24.5L229.625,23.406ZM126.281,45.625L117.188,50.813L117.531,51.469C118.509,51.004 119.24,50.802 119.719,50.875C120.205,50.92 120.655,51.277 121.031,51.938L128.219,64.531C128.595,65.192 128.692,65.756 128.5,66.188C128.326,66.609 127.767,67.14 126.844,67.781L127.188,68.438L136.344,63.219L135.969,62.594C134.939,63.089 134.188,63.305 133.719,63.25C133.25,63.195 132.824,62.834 132.438,62.156L125.25,49.531C124.864,48.854 124.77,48.271 124.969,47.813C125.168,47.354 125.752,46.829 126.688,46.25L126.281,45.625ZM314.594,51.094L314.188,51.719C315.048,52.376 315.565,52.947 315.719,53.406C315.901,53.859 315.759,54.395 315.344,55.031L307.438,67.188C307.022,67.824 306.565,68.161 306.094,68.188C305.639,68.225 304.899,67.966 303.906,67.438L303.5,68.063L312.313,73.813L312.719,73.188C311.808,72.497 311.259,71.942 311.094,71.5C310.929,71.058 311.074,70.497 311.5,69.844L319.438,57.688C319.864,57.034 320.314,56.689 320.813,56.656C321.311,56.624 322.026,56.901 322.969,57.469L323.375,56.844L314.594,51.094ZM114.094,52.531L107.969,56.844L108.406,57.469C108.772,57.259 109.046,57.086 109.281,56.969C109.521,56.823 109.761,56.746 109.938,56.719C110.119,56.664 110.276,56.67 110.406,56.75C110.541,56.802 110.643,56.929 110.781,57.125C111.047,57.5 111.2,58.216 111.219,59.281C111.242,60.318 111.21,61.735 111.156,63.563L106.219,61.594C105.708,61.392 105.381,61.166 105.219,60.938C105.034,60.676 104.949,60.449 105.031,60.219C105.13,59.977 105.415,59.672 105.844,59.344C105.893,59.309 106.129,59.137 106.563,58.781L106.125,58.156L97.656,64.125L98.094,64.781C98.558,64.502 98.972,64.369 99.344,64.375C99.716,64.381 100.294,64.523 101.063,64.813L110.938,68.5L110.469,76.938C110.417,77.66 110.283,78.237 110.063,78.688C109.842,79.138 109.495,79.632 108.938,80.125L109.375,80.719L115.469,76.406L115.031,75.781C114.223,76.231 113.636,76.485 113.25,76.563C112.868,76.612 112.563,76.498 112.344,76.188C112.159,75.926 112.017,75.413 111.969,74.688C111.921,73.962 111.933,72.669 111.969,70.781L112,68.875L117.281,71.063C118.005,71.359 118.507,71.72 118.75,72.063C119.039,72.471 118.783,72.975 117.969,73.625C117.936,73.648 117.714,73.823 117.313,74.156L117.75,74.781L126.063,68.875L125.625,68.281C125.189,68.565 124.748,68.662 124.281,68.625C123.819,68.56 122.962,68.309 121.75,67.844L112.406,64.063L112.438,59.969C112.486,57.753 112.637,56.243 112.875,55.438C113.113,54.632 113.675,53.854 114.531,53.125L114.094,52.531ZM375.406,110.344L374.781,110.75C375.274,111.715 375.465,112.426 375.406,112.906C375.375,113.394 375.056,113.824 374.406,114.219L361.969,121.781C361.319,122.176 360.78,122.273 360.344,122.094C359.918,121.932 359.386,121.405 358.719,120.5L358.063,120.875L363.531,129.844L364.156,129.469C363.633,128.453 363.395,127.689 363.438,127.219C363.48,126.749 363.865,126.311 364.531,125.906L376.938,118.375C377.604,117.97 378.161,117.876 378.625,118.063C379.089,118.249 379.613,118.799 380.219,119.719L380.875,119.344L375.406,110.344ZM54.313,111.063L50.625,117.594L51.281,117.969C51.522,117.623 51.744,117.363 51.906,117.156C52.061,116.922 52.196,116.756 52.344,116.656C52.484,116.529 52.63,116.452 52.781,116.469C52.925,116.458 53.103,116.507 53.313,116.625C53.713,116.851 54.153,117.452 54.625,118.406C55.09,119.334 55.706,120.637 56.438,122.313L51.063,122.625C50.514,122.661 50.119,122.606 49.875,122.469C49.596,122.312 49.461,122.118 49.438,121.875C49.424,121.615 49.534,121.262 49.781,120.781C49.811,120.729 49.947,120.445 50.188,119.938L49.531,119.563L44.438,128.594L45.094,128.969C45.394,128.518 45.724,128.216 46.063,128.063C46.401,127.909 46.963,127.817 47.781,127.75L58.313,126.844L61.5,134.688C61.762,135.363 61.882,135.936 61.875,136.438C61.868,136.939 61.731,137.535 61.438,138.219L62.094,138.594L65.781,132.063L65.125,131.688C64.586,132.44 64.16,132.921 63.844,133.156C63.52,133.364 63.175,133.374 62.844,133.188C62.565,133.03 62.26,132.635 61.906,132C61.553,131.365 60.993,130.191 60.219,128.469L59.438,126.719L65.156,126.469C65.937,126.427 66.509,126.513 66.875,126.719C67.311,126.964 67.302,127.565 66.844,128.5C66.824,128.535 66.72,128.777 66.5,129.25L67.156,129.625L72.156,120.75L71.5,120.375C71.227,120.818 70.876,121.115 70.438,121.281C69.992,121.42 69.107,121.528 67.813,121.625L57.75,122.219L56.031,118.5C55.128,116.476 54.598,115.049 54.469,114.219C54.34,113.388 54.506,112.462 54.969,111.438L54.313,111.063ZM382.063,121.469L381.406,121.844C381.832,122.839 381.998,123.556 381.906,124.031C381.842,124.515 381.487,124.932 380.813,125.281L367.938,131.969C367.263,132.318 366.705,132.396 366.281,132.188C365.867,131.997 365.323,131.417 364.719,130.469L364.063,130.844L368.906,140.125L369.563,139.781C369.109,138.732 368.926,137.966 369,137.5C369.074,137.034 369.464,136.64 370.156,136.281L383.063,129.594C383.755,129.235 384.331,129.158 384.781,129.375C385.232,129.592 385.708,130.167 386.25,131.125L386.906,130.813L382.063,121.469ZM404.438,196.688L403.688,196.719C403.671,197.802 403.496,198.541 403.219,198.938C402.963,199.353 402.477,199.58 401.719,199.625L387.219,200.469C386.46,200.513 385.927,200.394 385.625,200.031C385.324,199.688 385.072,198.925 384.906,197.813L384.156,197.875L384.813,208.344L385.563,208.313C385.576,207.17 385.711,206.396 385.969,206C386.226,205.604 386.721,205.389 387.5,205.344L401.969,204.469C402.747,204.423 403.333,204.618 403.656,205C403.979,205.382 404.177,206.092 404.281,207.188L405.031,207.188L404.438,196.688ZM384.813,209.438L384.719,219.938L385.469,219.969C385.559,218.83 385.748,218.065 386.031,217.688C386.315,217.31 386.876,217.149 387.656,217.156L402.156,217.25C402.936,217.257 403.454,217.472 403.75,217.875C404.046,218.278 404.22,219.025 404.25,220.125L405,220.156L405.094,209.656L404.344,209.625C404.254,210.704 404.054,211.435 403.75,211.813C403.466,212.21 402.979,212.413 402.219,212.406L387.688,212.281C386.928,212.274 386.401,212.07 386.125,211.688C385.848,211.325 385.652,210.59 385.563,209.469L384.813,209.438ZM384.688,221.063L383.875,231.531L384.625,231.563C384.794,230.432 385.035,229.732 385.344,229.375C385.652,229.018 386.16,228.846 386.938,228.906L401.438,230.031C402.215,230.092 402.763,230.359 403.031,230.781C403.299,231.203 403.358,231.963 403.313,233.063L404.063,233.094L404.906,222.656L404.156,222.563C403.992,223.633 403.735,224.363 403.406,224.719C403.096,225.096 402.57,225.247 401.813,225.188L387.344,224.094C386.586,224.035 386.093,223.776 385.844,223.375C385.593,222.994 385.45,222.249 385.438,221.125L384.688,221.063Z" style="fill:url(#_Linear10);fill-rule:nonzero;"/>
    </g>
    <defs>
        <radialGradient id="_Radial1" cx="0" cy="0" r="1" gradientUnits="userSpaceOnUse" gradientTransform="matrix(189.36,0,0,189.36,197.86,202.14)"><stop offset="0" style="stop-color:black;stop-opacity:1"/><stop offset="0.82" style="stop-color:black;stop-opacity:1"/><stop offset="1" style="stop-color:black;stop-opacity:0"/></radialGradient>
        <linearGradient id="_Linear2" x1="0" y1="0" x2="1" y2="0" gradientUnits="userSpaceOnUse" gradientTransform="matrix(81.12,-263.648,263.648,81.12,250.59,299.49)"><stop offset="0" style="stop-color:rgb(86,86,86);stop-opacity:1"/><stop offset="1" style="stop-color:white;stop-opacity:1"/></linearGradient>
        <radialGradient id="_Radial3" cx="0" cy="0" r="1" gradientUnits="userSpaceOnUse" gradientTransform="matrix(392.796,105.247,-121.129,452.062,318.556,230.155)"><stop offset="0" style="stop-color:rgb(155,155,155);stop-opacity:1"/><stop offset="1" style="stop-color:rgb(69,69,69);stop-opacity:1"/></radialGradient>
        <linearGradient id="_Linear4" x1="0" y1="0" x2="1" y2="0" gradientUnits="userSpaceOnUse" gradientTransform="matrix(128.407,-137.25,137.25,128.407,80.243,392.2)"><stop offset="0" style="stop-color:rgb(247,247,247);stop-opacity:1"/><stop offset="1" style="stop-color:rgb(225,225,225);stop-opacity:1"/></linearGradient>
        <linearGradient id="_Linear5" x1="0" y1="0" x2="1" y2="0" gradientUnits="userSpaceOnUse" gradientTransform="matrix(-108.49,322.862,-322.862,-108.49,296.9,68.568)"><stop offset="0" style="stop-color:rgb(86,86,86);stop-opacity:1"/><stop offset="1" style="stop-color:white;stop-opacity:1"/></linearGradient>
        <radialGradient id="_Radial6" cx="0" cy="0" r="1" gradientUnits="userSpaceOnUse" gradientTransform="matrix(189.29,0,0,189.29,197.86,202.14)"><stop offset="0" style="stop-color:rgb(38,96,128);stop-opacity:1"/><stop offset="1" style="stop-color:rgb(17,45,60);stop-opacity:1"/></radialGradient>
        <linearGradient id="_Linear7" x1="0" y1="0" x2="1" y2="0" gradientUnits="userSpaceOnUse" gradientTransform="matrix(138.45,32.83,-32.83,138.45,186.59,217.67)"><stop offset="0" style="stop-color:rgb(245,245,245);stop-opacity:1"/><stop offset="1" style="stop-color:rgb(229,229,229);stop-opacity:1"/></linearGradient>
        <linearGradient id="_Linear8" x1="0" y1="0" x2="1" y2="0" gradientUnits="userSpaceOnUse" gradientTransform="matrix(-68.42,63.64,-63.64,-68.42,239.83,198.64)"><stop offset="0" style="stop-color:rgb(245,245,245);stop-opacity:1"/><stop offset="1" style="stop-color:rgb(229,229,229);stop-opacity:1"/></linearGradient>
        <radialGradient id="_Radial9" cx="0" cy="0" r="1" gradientUnits="userSpaceOnUse" gradientTransform="matrix(189.29,0,0,189.29,197.86,202.14)"><stop offset="0" style="stop-color:rgb(247,247,247);stop-opacity:1"/><stop offset="1" style="stop-color:rgb(194,194,194);stop-opacity:1"/></radialGradient>
        <linearGradient id="_Linear10" x1="0" y1="0" x2="1" y2="0" gradientUnits="userSpaceOnUse" gradientTransform="matrix(209.602,-75.256,75.256,209.602,99.348,150.36)"><stop offset="0" style="stop-color:black;stop-opacity:1"/><stop offset="1" style="stop-color:rgb(97,97,97);stop-opacity:1"/></linearGradient>
    </defs>
</svg>
